<svg width="217" height="33" viewBox="0 0 217 33" fill="none" xmlns="http://www.w3.org/2000/svg">
<path d="M6.28523 0H0V26.6008V32.9508H6.28523L24.874 32.9841V26.6357L6.28523 26.6008V0Z" fill="black"/>
<path d="M41.7215 0H37.3094V32.9508H41.7215H43.5963H62.207V26.6008H43.5963V19.6497H62.207V13.3012H43.5963V6.34847H62.207V0H43.5963H41.7215Z" fill="black"/>
<path d="M88.6088 15.4073L77.7294 0H74.5781V32.9508L80.8382 33V14.1322L88.6088 24.7262L96.3841 14.083V32.9508H102.603V0H99.493L88.6088 15.4073Z" fill="black"/>
<path d="M136.804 18.4491C136.804 22.988 133.403 26.6658 129.032 26.6658C124.659 26.6658 121.258 22.9991 121.258 18.4586V0.0253749L115.039 0V18.4317C115.039 26.4422 121.315 32.9588 129.03 32.9588C136.744 32.9588 143.022 26.4422 143.022 18.4317V0H136.804V18.4491Z" fill="black"/>
<path d="M177.222 20.3887L158.568 0H155.459V32.9508H161.676V12.1514L180.331 32.9508H183.442V0H177.222V20.3887Z" fill="black"/>
<path d="M217 24.1299L214.588 18.4285H205.734L210.165 7.96612L206.796 0L192.822 32.9524L199.565 33L203.367 24.0221L217 24.1299Z" fill="black"/>
</svg>
