<svg width="24" height="23" viewBox="0 0 24 23" fill="none" xmlns="http://www.w3.org/2000/svg">
<path d="M19.3979 13.9425C19.4983 14.0094 19.5846 14.0954 19.6517 14.1956C19.7189 14.2958 19.7656 14.4083 19.7893 14.5265C19.813 14.6448 19.8132 14.7666 19.7898 14.8849C19.7664 15.0033 19.7199 15.1159 19.653 15.2162C17.8557 17.911 15.5953 19.4309 12.9184 19.7109V21.1357H15.6738C15.9079 21.136 16.1331 21.2256 16.3034 21.3864C16.4736 21.5471 16.5761 21.7668 16.5897 22.0005C16.6034 22.2343 16.5273 22.4644 16.377 22.6439C16.2266 22.8234 16.0134 22.9387 15.7809 22.9663L15.6738 22.9726H8.32619C8.09205 22.9724 7.86684 22.8828 7.69659 22.722C7.52633 22.5613 7.4239 22.3416 7.41022 22.1079C7.39653 21.8741 7.47264 21.644 7.62297 21.4645C7.77331 21.285 7.98653 21.1697 8.21904 21.1421L8.32619 21.1357H11.0815V19.7109C8.40528 19.4315 6.14489 17.9116 4.34754 15.2162C4.21238 15.0136 4.16326 14.7655 4.21099 14.5267C4.25872 14.2878 4.39938 14.0777 4.60203 13.9425C4.80468 13.8074 5.05272 13.7583 5.29158 13.806C5.53045 13.8537 5.74057 13.9944 5.87573 14.197C7.55062 16.71 9.56992 17.9212 12 17.9212C14.43 17.9212 16.4493 16.7094 18.1242 14.197C18.1911 14.0966 18.2771 14.0104 18.3773 13.9432C18.4775 13.8761 18.59 13.8293 18.7082 13.8056C18.8265 13.7819 18.9483 13.7818 19.0666 13.8052C19.185 13.8285 19.2975 13.875 19.3979 13.9419V13.9425ZM12 0.0115051C12.9743 0.0115051 13.9088 0.398563 14.5977 1.08753C15.2867 1.7765 15.6738 2.71094 15.6738 3.68529V12.8697C15.6738 13.8441 15.2867 14.7785 14.5977 15.4675C13.9088 16.1565 12.9743 16.5435 12 16.5435C11.0256 16.5435 10.0912 16.1565 9.40222 15.4675C8.71325 14.7785 8.32619 13.8441 8.32619 12.8697V3.68529C8.32619 2.71094 8.71325 1.7765 9.40222 1.08753C10.0912 0.398563 11.0256 0.0115051 12 0.0115051V0.0115051ZM4.65241 4.60373C4.87743 4.60376 5.0946 4.68639 5.26273 4.83593C5.43085 4.98548 5.53823 5.19155 5.56448 5.41503L5.57086 5.52218V11.0328C5.57063 11.267 5.48099 11.4922 5.32025 11.6625C5.15952 11.8327 4.93983 11.9351 4.70608 11.9488C4.47234 11.9625 4.2422 11.8864 4.0627 11.7361C3.8832 11.5857 3.76789 11.3725 3.74035 11.14L3.73397 11.0328V5.52218C3.73397 5.01512 4.14535 4.60373 4.65241 4.60373ZM19.3475 4.60373C19.5726 4.60376 19.7897 4.68639 19.9579 4.83593C20.126 4.98548 20.2334 5.19155 20.2596 5.41503L20.266 5.52218V11.0328C20.2658 11.267 20.1761 11.4922 20.0154 11.6625C19.8546 11.8327 19.635 11.9351 19.4012 11.9488C19.1675 11.9625 18.9373 11.8864 18.7578 11.7361C18.5783 11.5857 18.463 11.3725 18.4355 11.14L18.4291 11.0328V5.52218C18.4291 5.01512 18.8405 4.60373 19.3475 4.60373ZM1.43785 5.52218C1.66287 5.5222 1.88004 5.60483 2.04817 5.75438C2.21629 5.90393 2.32367 6.10999 2.34992 6.33347L2.3563 6.44062V10.1144C2.35607 10.3485 2.26643 10.5738 2.10569 10.744C1.94496 10.9143 1.72527 11.0167 1.49153 11.0304C1.25778 11.0441 1.02764 10.968 0.848142 10.8176C0.66864 10.6673 0.553332 10.4541 0.525787 10.2216L0.519409 10.1144V6.44062C0.519409 5.93356 0.930796 5.52218 1.43785 5.52218ZM22.5621 5.52218C22.7871 5.5222 23.0043 5.60483 23.1724 5.75438C23.3405 5.90393 23.4479 6.10999 23.4742 6.33347L23.4805 6.44062V10.1144C23.4803 10.3485 23.3907 10.5738 23.2299 10.744C23.0692 10.9143 22.8495 11.0167 22.6158 11.0304C22.382 11.0441 22.1519 10.968 21.9724 10.8176C21.7929 10.6673 21.6776 10.4541 21.65 10.2216L21.6437 10.1144V6.44062C21.6437 5.93356 22.055 5.52218 22.5621 5.52218Z" fill="#F74D40"/>
</svg>
